<svg xmlns="http://www.w3.org/2000/svg" viewBox="0 0 92.72 92.72"><defs><style>.cls-1{fill:#98a5c3;}.cls-2{fill:#005c98;}</style></defs><g id="Layer_2" data-name="Layer 2"><g id="Layer_1-2" data-name="Layer 1"><path class="cls-1" d="M66.44,59.5a32.92,32.92,0,0,1-.93,7.71c-.06.25-.1.51-.17.76,0,0,0,0,0,0A33.21,33.21,0,0,1,45,90.55s0,0,0,0a33.25,33.25,0,0,1-34.59-6.89L9.72,83c-.22-.23-.45-.46-.67-.7A33,33,0,0,1,0,59.51c0-.88,0-1.76.11-2.63A40.77,40.77,0,0,0,4.45,62,40.37,40.37,0,0,0,22.78,72.54l0,0a40.83,40.83,0,0,0,6.47,1.16l1.38.11c.84,0,1.67.07,2.51.07h0a40.71,40.71,0,0,0,6.88-.59,41.69,41.69,0,0,0,6.73-1.77l.84-.29h0A40.66,40.66,0,0,0,62,62a40.07,40.07,0,0,0,4.33-5.12c0,.37.06.75.08,1.13S66.44,59,66.44,59.5Z"/><path class="cls-1" d="M92.72,33.19c0,.88,0,1.77-.11,2.65a41.63,41.63,0,0,0-4.34-5.11A40.53,40.53,0,0,0,69.94,20.17h0a40.35,40.35,0,0,0-7.78-1.27c-.87-.05-1.74-.08-2.62-.08-.61,0-1.23,0-1.84,0q-1.2.06-2.4.18l-1.61.2-.79.13-.35.05-.08,0-.36.07-.8.14-.79.18-.39.09-.2.05-.19.05-.79.2-1,.27-.1,0-.08,0h-.07a1.27,1.27,0,0,0-.18.06l-.07,0-.08,0-.47.15-.4.14-.07,0-.2.07L46,21.1l-.2.08-.76.28h0A41,41,0,0,0,26.39,35.84c0-.37-.06-.74-.08-1.11s0-1,0-1.5,0-.71,0-1.07a33.63,33.63,0,0,1,.92-6.77c.05-.22.09-.43.15-.65v0A33.21,33.21,0,0,1,47.69,2.17,33.34,33.34,0,0,1,59.61,0,32.94,32.94,0,0,1,82.29,9.06l.7.67h0c.23.22.45.45.68.69A33.14,33.14,0,0,1,92.72,33.19Z"/><path class="cls-2" d="M30.73,62a40.77,40.77,0,0,0,5.11,4.34c-.87.07-1.74.11-2.61.11a33.35,33.35,0,0,1-8.49-1.1h0A33.27,33.27,0,0,1,2.16,45,33.43,33.43,0,0,1,0,33.2,33.07,33.07,0,0,1,9.05,10.42l.68-.69c.22-.23.46-.45.69-.68a33.08,33.08,0,0,1,22.8-9c.87,0,1.75,0,2.63.11L35.72.2A40.8,40.8,0,0,0,20.17,22.78l0,0a41.29,41.29,0,0,0-1.34,10.41A40.6,40.6,0,0,0,30.73,62Z"/><path class="cls-2" d="M92.72,59.52a33.07,33.07,0,0,1-9,22.77L83,83l-.7.68a33.07,33.07,0,0,1-22.77,9c-.88,0-1.77,0-2.64-.11A42.44,42.44,0,0,0,62,88.28,40.56,40.56,0,0,0,72.54,70l0,0c.34-1.28.61-2.57.82-3.87.14-.86.25-1.73.34-2.6.12-1.31.19-2.62.19-3.93A40.94,40.94,0,0,0,71.26,45a40.12,40.12,0,0,0-3.81-7.54,40.78,40.78,0,0,0-10.59-11.1L58,26.31q.75,0,1.5,0c.71,0,1.43,0,2.15.07a32.52,32.52,0,0,1,6.33,1h0A33.27,33.27,0,0,1,90.56,47.68,33.43,33.43,0,0,1,92.72,59.52Z"/></g></g></svg>